<svg width="19" height="20" viewBox="0 0 19 20" fill="none" xmlns="http://www.w3.org/2000/svg">
<path d="M7.40972 0.628999C7.22692 0.251213 6.82768 0.0277635 6.41007 0.0695157L3.65914 0.344554C3.39335 0.371127 3.14924 0.502929 2.98123 0.710578L0.222607 4.11993C0.0785789 4.29793 0 4.51997 0 4.74894V6.22434C0 6.47991 0.097848 6.72578 0.273451 6.91146L2.09192 8.83429C2.32811 9.08403 2.67602 9.19496 3.01318 9.12803L5.12199 8.7094C5.24855 8.68428 5.37877 8.68389 5.50548 8.70824L6.40004 8.88021C6.97779 8.99127 7.33528 9.57465 7.17196 10.1398L7.13054 10.2832C7.05528 10.5436 7.08898 10.8235 7.22393 11.0586L8.25222 12.8502C8.4058 13.1178 8.42727 13.4413 8.31041 13.7268L7.89909 14.7317C7.8058 14.9597 7.79991 15.214 7.88254 15.446L9.22625 19.2189C9.38759 19.6719 9.84851 19.9459 10.3236 19.8712L11.519 19.6833C11.7418 19.6483 11.9462 19.539 12.099 19.3732L13.804 17.5236C13.948 17.3674 14.0385 17.1695 14.0624 16.9585L14.1612 16.0875C14.1929 15.8087 14.3402 15.556 14.5672 15.3911L15.1394 14.9756C15.4255 14.7678 15.5806 14.4243 15.5473 14.0723L15.3615 12.1077C15.3368 11.8466 15.4157 11.5863 15.5811 11.3828L17.8464 8.59574C18.2606 8.08613 17.8381 7.33242 17.1872 7.41982C16.8997 7.45844 16.6168 7.32191 16.4681 7.07275L13.4917 2.08481C13.323 1.80216 13.0261 1.62061 12.6976 1.59933L8.30488 1.31466C7.94543 1.29137 7.62628 1.07656 7.46939 0.752311L7.40972 0.628999ZM18.1442 14.4719C18.1618 14.1981 17.8099 14.0722 17.6499 14.2951C17.6006 14.3637 17.5223 14.4057 17.4378 14.4087L17.3039 14.4134C17.1053 14.4205 16.9242 14.5343 16.8423 14.7154C16.503 15.4648 16.4358 16.0007 16.3896 16.8502C16.3774 17.0757 16.5283 17.2777 16.7475 17.3319C16.9712 17.3873 17.2022 17.2732 17.2943 17.0619L18.0634 15.2976C18.085 15.2481 18.0978 15.1953 18.1013 15.1414L18.1442 14.4719Z" fill="#1677FF"/>
</svg>
