<svg width="14" height="13" viewBox="0 0 14 13" fill="none" xmlns="http://www.w3.org/2000/svg">
<path d="M3.51205 12.2487H1.16085C0.665413 12.2487 0.420416 12.2487 0.27264 12.1569C0.193416 12.1071 0.127327 12.039 0.0799491 11.9583C0.032571 11.8777 0.00529427 11.7868 0.000420408 11.6933C-0.00813505 11.5191 0.113975 11.3083 0.358972 10.8845L6.16891 0.787457C6.41779 0.358906 6.54535 0.144242 6.70324 0.0656872C6.78704 0.0224425 6.87998 -0.00012207 6.97429 -0.00012207C7.06859 -0.00012207 7.16153 0.0224425 7.24534 0.0656872C7.40245 0.144242 7.52534 0.358906 7.77033 0.787457L8.96965 2.8431L8.97354 2.85243C9.17032 3.14332 9.32665 3.45987 9.43709 3.79276C9.5032 4.05486 9.5032 4.33953 9.43709 4.6063C9.32644 4.9422 9.17049 5.26144 8.97354 5.55518L5.92002 10.8751L5.91147 10.893C5.75513 11.2103 5.55369 11.5059 5.31569 11.768C5.11032 11.9598 4.86366 12.1019 4.5947 12.1833C4.34582 12.2487 4.06971 12.2487 3.5136 12.2487M9.45965 12.2487H12.8274C13.3314 12.2487 13.5803 12.2487 13.7296 12.153C13.8084 12.103 13.874 12.0347 13.921 11.9541C13.9679 11.8734 13.9949 11.7827 13.9995 11.6894C14.0088 11.5183 13.8906 11.3177 13.6549 10.9187L13.6285 10.8759L11.94 8.0316L11.9221 7.99738C11.6856 7.60305 11.5635 7.40238 11.4103 7.32383C11.3272 7.28061 11.2349 7.25804 11.1412 7.25804C11.0475 7.25804 10.9552 7.28061 10.8721 7.32383C10.715 7.40161 10.5921 7.61238 10.3471 8.0316L8.65777 10.8798V10.8891C8.40888 11.3076 8.28677 11.5191 8.29533 11.6894C8.30006 11.7833 8.32708 11.8746 8.37415 11.9559C8.42122 12.0372 8.48698 12.1061 8.56599 12.1569C8.71143 12.2487 8.96032 12.2487 9.45965 12.2487Z" fill="white"/>
</svg>
